<?xml version="1.0" encoding="utf-8"?>
<!-- Generator: Adobe Illustrator 21.0.2, SVG Export Plug-In . SVG Version: 6.00 Build 0)  -->
<svg version="1.1" id="Layer_1" xmlns="http://www.w3.org/2000/svg" xmlns:xlink="http://www.w3.org/1999/xlink" x="0px" y="0px"
	 viewBox="0 0 500 500" style="enable-background:new 0 0 500 500;" xml:space="preserve">
<style type="text/css">
	.st0{fill:none;}
</style>
<path class="st0" d="M428.9,358.3c27.6-46.3,38.3-103.8,23.5-164.1C435.4,125.3,364,55.6,294.8,40C155.3,8.3,31.4,113.1,30.4,247.1
	C29.6,364.9,125.2,462,243,462.9c41.3,0.3,79.9-11,112.7-30.9l93.7,27.6c4.3,1.3,8.3-2.7,7-7L428.9,358.3z M332.1,137.2
	c11.3,0.4,20.1,9.8,19.8,21.1c-0.4,11.3-9.8,20.2-21.1,19.8c-11.3-0.4-20.2-9.8-19.8-21.1C311.4,145.8,320.8,136.9,332.1,137.2z
	 M245,378c-71.1,0-129-57.9-129-129s57.9-129,129-129c22.3,0,43.3,5.7,61.7,15.7c-2.3,2.5-4.1,5.3-5.6,8.4
	c-16.7-9-35.8-14.1-56.1-14.1c-65.6,0-119,53.4-119,119s53.4,119,119,119s119-53.4,119-119c0-22.7-6.4-43.9-17.4-61.9
	c3-1.6,5.7-3.6,8-6c12.3,19.7,19.4,43,19.4,67.9C374,320.1,316.1,378,245,378z M305.5,250.9c-1,33.3-28.9,59.5-62.1,58.5
	c-33.3-1-59.5-28.9-58.4-62.2s28.8-59.5,62.1-58.5C280.3,189.8,306.5,217.6,305.5,250.9z"/>
</svg>
