<?xml version="1.0" encoding="utf-8"?>
<!-- Generator: Adobe Illustrator 21.0.2, SVG Export Plug-In . SVG Version: 6.00 Build 0)  -->
<svg version="1.1" id="Layer_1" xmlns="http://www.w3.org/2000/svg" xmlns:xlink="http://www.w3.org/1999/xlink" x="0px" y="0px"
	 viewBox="0 0 500 500" style="enable-background:new 0 0 500 500;" xml:space="preserve">
<style type="text/css">
	.st0{fill:none;}
</style>
<path class="st0" d="M396.3,176.6c-4,3.9-8.5,7.3-13.4,10.1c9,19.1,14.1,40.3,14.1,62.8c0,81.2-66.1,147.2-147.2,147.2
	s-147.2-66.1-147.2-147.2s66.1-147.2,147.2-147.2c15.3,0,30.1,2.4,44,6.7c2-5.2,4.8-10.1,8.2-14.6c-16.4-5.6-33.9-8.6-52.1-8.6
	C159.5,85.7,86,159.2,86,249.5s73.5,163.8,163.8,163.8s163.8-73.5,163.8-163.8C413.5,223.3,407.4,198.6,396.3,176.6z M249.8,14
	C119.9,14,14.3,119.7,14.3,249.5c0,39.4,9.8,76.7,27,109.4c2.9-2.6,6.2-4.8,9.8-6.6C35,321.6,26,286.6,26,249.5
	C26,126.1,126.4,25.7,249.8,25.7s223.8,100.4,223.8,223.8S373.1,473.3,249.8,473.3c-53,0-101.7-18.5-140.1-49.4
	c-2.4,3.2-5.2,6-8.3,8.4c40.5,32.9,92.2,52.7,148.4,52.7c129.8,0,235.5-105.7,235.5-235.5S379.6,14,249.8,14z M265.2,155.1
	C202.7,143,149,191.3,150.4,251c1.3,52.5,45.2,94.3,97.6,93.1c18.4-0.4,35.4-6,49.7-15.3l42.1,11c1.9,0.5,3.7-1.3,3-3.2l-13.6-41.6
	c11.7-21,15.6-46.7,8.2-73.4C329,191.1,296.2,161.1,265.2,155.1z M208.2,262.8c-6.7,0-12.2-5.5-12.2-12.2s5.4-12.2,12.2-12.2
	c6.7,0,12.2,5.5,12.2,12.2S215,262.8,208.2,262.8z M247,262.8c-6.7,0-12.2-5.5-12.2-12.2c0-6.7,5.4-12.2,12.2-12.2
	s12.2,5.5,12.2,12.2C259.1,257.3,253.7,262.8,247,262.8z M285.7,262.8c-6.7,0-12.2-5.5-12.2-12.2s5.4-12.2,12.2-12.2
	c6.7,0,12.2,5.5,12.2,12.2S292.4,262.8,285.7,262.8z M397.7,131.9c0,25.1-20.4,45.5-45.5,45.5s-45.5-20.4-45.5-45.5
	s20.4-45.5,45.5-45.5S397.7,106.8,397.7,131.9z M100.7,394.9c0,15.8-12.8,28.6-28.6,28.6s-28.6-12.8-28.6-28.6
	c0-15.8,12.8-28.6,28.6-28.6S100.7,379.1,100.7,394.9z"/>
</svg>
